<svg width="24.000000" height="24.000000" viewBox="0 0 24 24" fill="none" xmlns="http://www.w3.org/2000/svg" xmlns:xlink="http://www.w3.org/1999/xlink">
	<desc>
			Created with Pixso.
	</desc>
	<defs>
		<clipPath id="clip31009_547">
			<rect id="icon / pawprint 1" width="24.000000" height="24.000000" fill="white" fill-opacity="0"/>
		</clipPath>
	</defs>
	<rect id="icon / pawprint 1" width="24.000000" height="24.000000" fill="#FFFFFF" fill-opacity="0"/>
	<g clip-path="url(#clip31009_547)">
		<path id="Vector" d="M15.3613 14.3621C15.0938 12.3788 13.8535 10.6897 12.0391 9.84412C10.2266 8.99854 8.13281 9.13281 6.44336 10.2034L2.36914 12.783C1.69336 13.2109 1.18359 13.8319 0.896484 14.5784C0.607422 15.3251 0.568359 16.1272 0.783203 16.8983C0.998047 17.6696 1.44531 18.3367 2.07617 18.8281C2.70898 19.3193 3.46484 19.5884 4.26562 19.6062L4.31836 19.6072C6.32422 19.6661 8.23242 20.5634 9.55859 22.0739C9.90039 22.4634 10.3105 22.7714 10.7695 22.9857C11.0195 23.1023 11.2852 23.1912 11.5605 23.2506C12.3418 23.4188 13.1406 23.3326 13.8691 23.0012C14.5977 22.6698 15.1875 22.1243 15.5762 21.424C15.9629 20.7235 16.1113 19.9342 16.0039 19.141L15.3613 14.3621ZM13.2871 21.7207C12.3613 22.1422 11.2871 21.9114 10.6152 21.1461C9.81641 20.2363 8.8418 19.5131 7.76367 19.0104C6.6875 18.5082 5.50781 18.2263 4.29883 18.1996L4.26367 18.1989C3.25977 18.1625 2.4082 17.4921 2.13867 16.5219C1.86719 15.541 2.26172 14.5161 3.12109 13.9714L7.19531 11.3921C8.47852 10.5792 10.0684 10.4772 11.4453 11.1193C12.8223 11.7614 13.7637 13.0437 13.9668 14.5496L14.6094 19.3284C14.7461 20.3378 14.2148 21.2991 13.2871 21.7207Z" fill="#54ADFF" fill-opacity="1.000000" fill-rule="nonzero"/>
		<path id="Vector" d="M4.7207 9.39526C5.54883 9.45288 6.3457 9.13611 6.96484 8.50305C7.55469 7.90063 7.91211 7.07739 7.97461 6.18494C8.03516 5.29272 7.79297 4.42822 7.29297 3.75049C6.76562 3.03845 6.02148 2.61499 5.19531 2.55835C3.5332 2.44299 2.07422 3.88293 1.94141 5.76904C1.83984 7.27112 2.60938 8.60864 3.76758 9.14844C4.0625 9.28625 4.38281 9.37207 4.7207 9.39526ZM3.3457 5.86584C3.42383 4.75439 4.20898 3.90015 5.09766 3.96179C5.25781 3.97278 5.41406 4.01379 5.56055 4.08228C5.78711 4.18799 5.99219 4.35913 6.16211 4.58679C6.46289 4.99597 6.60938 5.5293 6.57031 6.08826C6.53125 6.64746 6.31445 7.15552 5.95898 7.51904C5.63281 7.85229 5.22852 8.02026 4.81836 7.99182L4.81836 7.99182C3.92969 7.93091 3.26953 6.97705 3.3457 5.86584Z" fill="#54ADFF" fill-opacity="1.000000" fill-rule="nonzero"/>
		<path id="Vector" d="M10.6406 8.64673C12.4023 9.46826 14.5977 8.50366 15.5332 6.49646C16.4707 4.48889 15.7988 2.18726 14.0371 1.36572C12.2754 0.544312 10.0801 1.50928 9.14453 3.51697C8.20898 5.52405 8.87891 7.82532 10.6406 8.64673ZM13.4414 2.64062C14.5 3.13428 14.8672 4.59741 14.2578 5.90198C13.6504 7.20605 12.2949 7.86536 11.2363 7.3717C10.1777 6.87817 9.81055 5.41553 10.4199 4.11145C11.0273 2.80688 12.3828 2.14709 13.4414 2.64062Z" fill="#54ADFF" fill-opacity="1.000000" fill-rule="nonzero"/>
		<path id="Vector" d="M15.7441 12.1141L15.7441 12.1143C15.9727 12.3306 16.2285 12.5024 16.5039 12.6309C17.7891 13.2299 19.4785 12.8787 20.625 11.6643C21.2871 10.9653 21.6758 10.0822 21.7227 9.17773C21.7715 8.23108 21.4453 7.37439 20.8008 6.76526C20.1562 6.15649 19.2812 5.87744 18.3398 5.97974C17.4395 6.07764 16.5801 6.51648 15.918 7.2157C14.5254 8.69031 14.4473 10.8878 15.7441 12.1141ZM16.9414 8.18201C17.373 7.72546 17.9238 7.44031 18.4922 7.37842C19.0176 7.32117 19.4941 7.46667 19.834 7.78772C20.1738 8.10889 20.3457 8.57654 20.3184 9.10486C20.2891 9.67566 20.0352 10.2415 19.6035 10.6979C18.7422 11.6088 17.4453 11.7855 16.7109 11.0918C15.9766 10.3982 16.0801 9.0929 16.9414 8.18201Z" fill="#54ADFF" fill-opacity="1.000000" fill-rule="nonzero"/>
		<path id="Vector" d="M22.6699 14.8269L22.6699 14.8262C21.873 13.3622 19.875 12.9039 18.2148 13.8049C16.5547 14.707 15.8516 16.6321 16.6445 18.0959C16.9355 18.63 17.3848 19.0304 17.9199 19.2798C18.8516 19.7147 20.043 19.6912 21.0996 19.1182C22.7598 18.2161 23.4648 16.2911 22.6699 14.8269ZM20.4297 17.8818C19.4492 18.4133 18.3066 18.2084 17.8809 17.4249C17.457 16.6425 17.9082 15.5729 18.8867 15.0411C19.5352 14.6885 20.2578 14.6603 20.7949 14.9106C21.0664 15.0372 21.291 15.2351 21.4336 15.4984C21.8574 16.2812 21.4062 17.3503 20.4297 17.8818Z" fill="#54ADFF" fill-opacity="1.000000" fill-rule="nonzero"/>
	</g>
</svg>
